<svg xmlns="http://www.w3.org/2000/svg" xmlns:xlink="http://www.w3.org/1999/xlink" xml:space="preserve" version="1.1" style="shape-rendering:geometricPrecision;text-rendering:geometricPrecision;image-rendering:optimizeQuality;" viewBox="0 0 333.33 416.66249999999997" x="0px" y="0px" fill-rule="evenodd" clip-rule="evenodd"><defs><style type="text/css">
   
    .fil0 {fill:black;fill-rule:nonzero}
   
  </style></defs><g><path class="fil0" d="M57.02 108.2l38.95 0 0 -63.41c0,-10.73 4.38,-20.48 11.44,-27.54 7.06,-7.06 16.81,-11.44 27.54,-11.44l141.37 0c10.73,0 20.48,4.38 27.54,11.44 7.06,7.06 11.44,16.81 11.44,27.54l0 141.37c0,10.73 -4.39,20.48 -11.44,27.54 -7.06,7.06 -16.81,11.44 -27.54,11.44l-38.95 0 0 63.41c0,10.73 -4.38,20.48 -11.44,27.54 -7.06,7.06 -16.81,11.44 -27.54,11.44l-141.37 0c-10.73,0 -20.48,-4.38 -27.54,-11.44 -7.06,-7.06 -11.44,-16.81 -11.44,-27.54l0 -141.37c0,-10.73 4.38,-20.48 11.44,-27.54 7.06,-7.06 16.81,-11.44 27.54,-11.44zm60.74 0l80.63 0c10.73,0 20.48,4.38 27.54,11.44 7.06,7.06 11.44,16.81 11.44,27.54l0 56.17 38.95 0c4.72,0 9.02,-1.94 12.13,-5.06 3.12,-3.12 5.06,-7.42 5.06,-12.13l0 -141.37c0,-4.72 -1.94,-9.02 -5.06,-12.14 -3.12,-3.12 -7.42,-5.06 -12.13,-5.06l-141.37 0c-4.72,0 -9.02,1.94 -12.14,5.06 -3.12,3.12 -5.06,7.42 -5.06,12.14l0 63.41zm-10.84 21.79l-0.06 0 -0.06 0 -49.79 0c-4.72,0 -9.02,1.94 -12.13,5.06 -3.12,3.12 -5.06,7.42 -5.06,12.14l0 141.37c0,4.72 1.94,9.02 5.06,12.14 3.12,3.12 7.42,5.06 12.14,5.06l141.37 0c4.72,0 9.02,-1.94 12.14,-5.06 3.12,-3.12 5.06,-7.42 5.06,-12.14l0 -74.31 0 -67.06c0,-4.72 -1.94,-9.02 -5.06,-12.14 -3.12,-3.12 -7.42,-5.06 -12.14,-5.06l-91.47 0z"/></g><text x="0" y="348.33" fill="#000000" font-size="5px" font-weight="bold" font-family="'Helvetica Neue', Helvetica, Arial-Unicode, Arial, Sans-serif">Created by ARISO</text><text x="0" y="353.33" fill="#000000" font-size="5px" font-weight="bold" font-family="'Helvetica Neue', Helvetica, Arial-Unicode, Arial, Sans-serif">from the Noun Project</text></svg>